<?xml version="1.0" encoding="utf-8"?>
<!-- Designed by Vexels.com - 2020 All Rights Reserved - https://vexels.com/terms-and-conditions/  -->
<svg version="1.1" id="Capa_1" xmlns="http://www.w3.org/2000/svg" xmlns:xlink="http://www.w3.org/1999/xlink" x="0px" y="0px"
	 viewBox="0 0 1200 1200" enable-background="new 0 0 1200 1200" xml:space="preserve">
<g>
	<g>
		<path fill="#CF957F" d="M870.645,488.044c0.611,20.452,0.056,40.96-2.14,61.328c-1.028,9.559-1.278,22.147-4.446,28.483
			c-0.861,1.751-17.201-12.004-35.18-21.675c-16.589-8.92-34.985-13.672-34.985-15.339c0-7.336,19.785-54.103,30.178-80.946
			c9.226-23.814,25.37-68.497,36.097-65.802C870.867,396.789,869.728,456.477,870.645,488.044z"/>
		<path fill="#CF957F" d="M316.997,363.526c70.72,24.592,119.655,162.588,119.766,162.838
			c-41.182,12.671-73.333,27.455-112.041,58.438c-2.084-0.917-22.925-57.91-25.37-110.652
			C296.656,416.129,312.579,361.998,316.997,363.526z"/>
	</g>
	<path fill="#5B4A42" d="M1116.652,833.283c0.472,4.863,0.445,9.948-0.611,14.728c-0.445,1.973-1.306,3.807-1.806,5.752
		c-0.056,0.195-0.083,0.361-0.139,0.528c-1.139,0.778-4.863,3.168-7.781,4.446c-13.255,5.724-27.51,5.252-41.321,2.445
		c4.724-22.369-2.306-47.462-14.644-66.024c-8.642-12.977-27.065-1.834-20.674,12.032c5.196,11.254,7.836,26.399,7.447,38.709
		c-0.361,11.671-8.614,16.256-19.285,16.867c-7.947,0.445-26.649,1.167-33.318-3.335c-12.699-8.614-3.946-31.984-2.056-43.599
		c2.445-15.339-19.34-28.149-27.427-11.56c-9.059,18.646-14.561,43.155-6.363,62.884c-19.313,2.807-41.154,2.418-48.129-14.561
		c-5.28-12.838-3.362-31.734,0.556-44.683c4.446-14.617,14.95-19.757,29.15-23.175c38.292-9.309,82.197-8.086,121.183-3.362
		C1083.807,785.265,1113.123,796.853,1116.652,833.283z"/>
	<g>
		<path fill="#DE9B6F" d="M923.637,473.956c1.89,34.54-2.029,69.303-8.114,103.26c-2.501,13.95-5.641,27.788-8.336,41.682
			c-0.528-0.639-1.056-1.278-1.584-1.917c-5.057-6.002-10.448-11.727-16.061-17.229c4.918-14.561,5.641-32.873,7.03-45.767
			c2.362-21.897,2.834-43.961,1.945-65.941c-1.667-40.32-6.808-80.946-19.563-119.238c5.446-6.947,11.06-13.838,16.701-20.702
			c2.64,7.058,5.224,14.617,7.503,21.73C913.995,403.541,921.692,438.554,923.637,473.956z"/>
		<path fill="#DE9B6F" d="M296.823,803.688c6.141,11.504,8.781,25.982,6.502,38.875c-4.474,25.37-29.344,27.288-52.019,24.314
			c8.031-19.618,2.723-43.933-6.363-62.606c-8.003-16.451-29.9-3.918-27.427,11.56c1.612,10.004,5.669,20.119,4.613,30.372
			c-2.14,20.619-32.29,18.535-46.656,16.756c-13.088-1.612-12.393-16.895-11.949-27.232c0.417-9.754,2.668-19.646,6.78-28.51
			c6.419-13.866-12.032-25.065-20.674-12.06c-12.338,18.562-19.368,43.655-14.7,66.052c-12.866,2.584-26.01,3.14-38.653-1.528
			c-9.42-3.474-12.421-7.531-13.116-17.701c-1.056-16.034,4.752-35.569,17.979-45.572c12.366-9.309,29.289-12.838,44.294-14.867
			c14.95-2.001,30.178-2.195,45.239-2.445c23.425-0.417,47.351-0.861,70.415,3.779C276.677,786.015,289.014,789.1,296.823,803.688z"
			/>
		<path fill="#DE9B6F" d="M832.381,377.337c-27.982,38.32-61.967,114.598-76.5,170.063c-2.306,8.781,3.557,18.618,11.727,20.674
			c85.281,21.452,125.88,78.39,122.239,83.586c-3.612,5.224-22.758-10.365-34.568-14.061c-26.593-8.336-54.242-12.894-81.252-19.563
			c-24.898-6.169-51.463-14.144-70.637-32.04c-11.199-10.421-25.537-15.923-25.676-37.542
			c-0.139-21.619,63.912-108.512,103.094-142.636c11.06-9.642,33.151-24.787,48.073-34.263
			C839.189,364.999,836.271,372.002,832.381,377.337z"/>
	</g>
	<g>
		<path fill="#FAF4DC" d="M933.196,751.28c-2.14,0.417-4.252,0.861-6.363,1.334c-21.119,4.752-41.126,13.811-50.963,34.29
			c-6.169,12.838-8.753,28.26-8.475,43.183c-18.701-2.195-38.709-0.528-57.049-0.583c-23.092-0.111-46.211-0.111-69.303-0.167
			c-23.314-0.056-46.628-0.139-69.97-0.222c2.029-3.001,3.612-6.113,4.668-9.059c3.446-9.67-3.501-15.478-15.395-18.757
			c-2.334-0.639-94.007,0.667-95.619,1.084c-11.365,2.779-20.258,10.81-17.312,23.592c0.195,0.889,0.5,1.778,0.806,2.668
			c-29.066-0.139-58.16-0.25-87.227-0.417c-24.037-0.111-48.045-0.333-72.082-0.611c-17.395-0.195-36.625-2.362-54.52-0.333
			c-0.75-27.121-13.588-54.992-37.041-66.691c-9.365-4.696-19.674-7.808-30.4-9.948c4.807-19.868,8.614-39.209,17.84-57.827
			c3.196-6.447,6.697-12.782,10.421-18.979c5.947-3.64,99.537-21.647,158.614-42.96c59.105-21.286,89.033-76.639,101.621-104.705
			c1.973,0.028,28.9-5.669,50.685-5.335c17.395,0.278,32.179,6.669,32.179,6.669s9.976,36.43,15.756,46.823
			c16.312,29.261,40.96,48.296,72.138,59.55c29.372,10.587,60.3,13.227,90.783,18.729c17.117,3.112,34.402,7.586,50.63,13.866
			c7.781,3.001,36.764,23.008,45.044,26.704c0.611,0.278,11.143,12.56,16.256,26.927C932.751,730.856,931.14,742.888,933.196,751.28
			z M855.945,747.334c13.116-0.695,13.06-19.535,0-20.341c-14.672-0.917-28.9,2.112-42.627,7.475
			c0.445-3.029,0.695-6.141,0.695-9.309c0-34.04-27.566-61.606-61.606-61.606c-34.013,0-61.606,27.566-61.606,61.606
			c0,27.566,18.118,50.908,43.099,58.772c-3.946,3.001-5.863,6.947-6.28,11.004c-1.25,12.116,11.06,25.065,22.981,16.006
			C781.779,787.238,814.236,749.557,855.945,747.334z M466.08,783.931c24.981-7.864,43.099-31.206,43.099-58.772
			c0-34.04-27.594-61.606-61.606-61.606c-34.04,0-61.606,27.566-61.606,61.606c0,3.168,0.25,6.28,0.695,9.309
			c-13.727-5.363-27.955-8.392-42.627-7.475c-13.06,0.806-13.116,19.646,0,20.341c41.71,2.223,74.166,39.904,105.344,63.607
			c11.921,9.059,24.231-3.89,22.981-16.006C471.943,790.878,470.025,786.932,466.08,783.931z"/>
	</g>
	<path fill="#28201D" d="M1137.438,791.406c12.449,21.98,17.117,51.463,7.197,75.167c-6.002,14.339-20.619,21.647-34.902,25.982
		c-20.869,6.308-42.349,4.224-62.023-3.918c-8.698,5.113-19.785,6.224-32.179,6.53c-16.061,0.389-34.846,0.861-49.101-7.308
		c-15.867,4.391-32.206,7.808-48.601,5.752c-22.175-2.723-39.32-15.311-46.267-35.68c-19.841,3.029-41.515,1.084-61.217,1.167
		c-24.009,0.083-48.045,0.111-72.082,0.167c-46.211,0.083-92.423,0.222-138.634,0.417c-47.128,0.222-94.257,0.445-141.413,0.695
		c-23.092,0.111-46.211,0.306-69.303,0.584c-19.313,0.222-40.848,2.862-60.328-0.472c-0.639,1.445-1.278,2.89-2.001,4.307
		c-18.368,35.569-59.383,31.595-92.84,22.981c-14.227,8.309-33.401,7.808-49.296,7.392c-12.421-0.306-23.481-1.501-32.151-6.586
		c-23.731,9.754-49.963,10.421-73.833-0.584c-20.174-9.337-28.121-25.815-28.455-48.157c-0.361-24.481,9.337-51.658,28.594-67.386
		c17.062-13.922,38.82-19.896,60.272-22.87c23.759-3.307,47.934-3.585,71.86-3.39c8.364,0.083,17.173,0.25,26.093,0.806
		c-2.445-23.231,6.669-46.462,16.506-67.303c5.947-12.56,13.005-24.62,20.841-36.124c-8.225-20.98-13.255-42.96-17.645-65.107
		c-7.142-35.846-11.949-72.693-10.17-109.29c2.584-53.325,14.755-108.04,36.347-157.002c3.168-7.142,12.421-9.031,19.146-7.781
		c53.937,9.893,110.402,32.595,152.723,67.692c26.51,21.98,46.795,51.825,62.884,82.002c6.53,12.199,12.393,24.759,17.812,37.486
		c1.389,3.307,2.723,6.586,4.085,9.893c20.702-3.89,41.96-6.252,63.19-6.391c21.702-0.222,43.071,1.695,64.024,4.474
		c23.314-45.517,52.269-89.533,92.062-122.128c40.209-32.901,89.644-58.16,139.468-73.082c6.586-1.973,16.284,1.167,19.201,7.808
		c21.619,48.962,33.762,103.705,36.347,157.03c1.778,36.597-3.057,73.444-10.17,109.29c-4.418,22.147-9.392,44.155-17.645,65.107
		c8.253,12.143,15.645,24.87,21.758,38.181c9.42,20.48,18.034,42.932,15.534,65.58c18.979-1.501,38.125-1.278,57.16-0.667
		c22.369,0.722,45.267,1.945,66.775,8.614C1107.232,761.534,1126.74,772.51,1137.438,791.406z M1116.041,848.01
		c1.056-4.78,1.084-9.865,0.611-14.728c-3.529-36.43-32.845-48.018-65.219-51.908c-38.987-4.724-82.892-5.947-121.183,3.362
		c-14.2,3.418-24.704,8.559-29.15,23.175c-3.918,12.949-5.836,31.845-0.556,44.683c6.975,16.978,28.816,17.367,48.129,14.561
		c-8.197-19.729-2.695-44.239,6.363-62.884c8.086-16.589,29.872-3.779,27.427,11.56c-1.89,11.615-10.643,34.985,2.056,43.599
		c6.669,4.502,25.37,3.779,33.318,3.335c10.671-0.611,18.924-5.196,19.285-16.867c0.389-12.31-2.251-27.455-7.447-38.709
		c-6.391-13.866,12.032-25.009,20.674-12.032c12.338,18.562,19.368,43.655,14.644,66.024c13.811,2.807,28.066,3.279,41.321-2.445
		c2.918-1.278,6.641-3.668,7.781-4.446c0.056-0.167,0.083-0.333,0.139-0.528C1114.735,851.817,1115.597,849.983,1116.041,848.01z
		 M926.833,752.614c2.112-0.472,4.224-0.917,6.363-1.334c-2.056-8.392-0.445-20.424-4.279-31.178
		c-5.113-14.366-15.645-26.649-16.256-26.927c-8.281-3.696-37.264-23.703-45.044-26.704c-16.228-6.28-33.512-10.754-50.63-13.866
		c-30.483-5.502-61.411-8.142-90.783-18.729c-31.178-11.254-55.826-30.289-72.138-59.55c-5.78-10.393-15.756-46.823-15.756-46.823
		s-14.783-6.391-32.179-6.669c-21.786-0.333-48.712,5.363-50.685,5.335c-12.588,28.066-42.516,83.42-101.621,104.705
		c-59.077,21.313-152.667,39.32-158.614,42.96c-3.724,6.197-7.225,12.532-10.421,18.979c-9.226,18.618-13.033,37.958-17.84,57.827
		c10.726,2.14,21.036,5.252,30.4,9.948c23.453,11.699,36.291,39.57,37.041,66.691c17.895-2.029,37.125,0.139,54.52,0.333
		c24.037,0.278,48.045,0.5,72.082,0.611c29.066,0.167,58.16,0.278,87.227,0.417c-0.306-0.889-0.611-1.778-0.806-2.668
		c-2.946-12.782,5.947-20.813,17.312-23.592c1.612-0.417,93.284-1.723,95.619-1.084c11.893,3.279,18.84,9.087,15.395,18.757
		c-1.056,2.945-2.64,6.058-4.668,9.059c23.342,0.083,46.656,0.167,69.97,0.222c23.092,0.056,46.211,0.056,69.303,0.167
		c18.34,0.056,38.347-1.612,57.049,0.583c-0.278-14.922,2.306-30.344,8.475-43.183C885.706,766.425,905.714,757.366,926.833,752.614
		z M915.523,577.216c6.086-33.957,10.004-68.72,8.114-103.26c-1.945-35.402-9.642-70.415-20.48-104.122
		c-2.279-7.114-4.863-14.672-7.503-21.73c-5.641,6.864-11.254,13.755-16.701,20.702c12.755,38.292,17.896,78.918,19.563,119.238
		c0.889,21.98,0.417,44.044-1.945,65.941c-1.389,12.894-2.112,31.206-7.03,45.767c5.613,5.502,11.004,11.226,16.061,17.229
		c0.528,0.639,1.056,1.278,1.584,1.917C909.882,605.004,913.022,591.166,915.523,577.216z M889.847,651.66
		c3.64-5.196-36.958-62.134-122.239-83.586c-8.17-2.056-14.033-11.893-11.727-20.674c14.533-55.465,48.518-131.743,76.5-170.063
		c3.89-5.335,6.808-12.338-3.501-5.78c-14.922,9.476-37.014,24.62-48.073,34.263c-39.181,34.124-103.232,121.017-103.094,142.636
		c0.139,21.619,14.478,27.121,25.676,37.542c19.174,17.895,45.739,25.871,70.637,32.04c27.01,6.669,54.659,11.226,81.252,19.563
		C867.088,641.295,886.234,656.884,889.847,651.66z M868.506,549.373c2.195-20.369,2.751-40.876,2.14-61.328
		c-0.917-31.567,0.222-91.256-10.476-93.951c-10.726-2.695-26.871,41.988-36.097,65.802c-10.393,26.843-30.178,73.61-30.178,80.946
		c0,1.667,18.396,6.419,34.985,15.339c17.979,9.67,34.318,23.425,35.18,21.675C867.227,571.52,867.477,558.932,868.506,549.373z
		 M436.763,526.364c-0.111-0.25-49.046-138.245-119.766-162.838c-4.418-1.528-20.341,52.603-17.645,110.624
		c2.445,52.742,23.286,109.735,25.37,110.652C363.431,553.819,395.581,539.035,436.763,526.364z M303.325,842.564
		c2.279-12.894-0.361-27.371-6.502-38.875c-7.808-14.589-20.146-17.673-35.735-20.813c-23.064-4.641-46.99-4.196-70.415-3.779
		c-15.061,0.25-30.289,0.445-45.239,2.445c-15.006,2.029-31.928,5.558-44.294,14.867c-13.227,10.004-19.035,29.539-17.979,45.572
		c0.695,10.17,3.696,14.227,13.116,17.701c12.644,4.668,25.787,4.113,38.653,1.528c-4.668-22.397,2.362-47.49,14.7-66.052
		c8.642-13.005,27.093-1.806,20.674,12.06c-4.113,8.864-6.363,18.757-6.78,28.51c-0.445,10.337-1.139,25.621,11.949,27.232
		c14.366,1.778,44.516,3.863,46.656-16.756c1.056-10.254-3.001-20.369-4.613-30.372c-2.473-15.478,19.424-28.01,27.427-11.56
		c9.087,18.674,14.394,42.988,6.363,62.606C273.981,869.852,298.851,867.934,303.325,842.564z"/>
	<path fill="#28201D" d="M855.945,726.993c13.06,0.806,13.116,19.646,0,20.341c-41.71,2.223-74.166,39.904-105.344,63.607
		c-11.921,9.059-24.231-3.89-22.981-16.006c0.417-4.057,2.334-8.003,6.28-11.004c-24.981-7.864-43.099-31.206-43.099-58.772
		c0-34.04,27.594-61.606,61.606-61.606c34.04,0,61.606,27.566,61.606,61.606c0,3.168-0.25,6.28-0.695,9.309
		C827.046,729.105,841.273,726.076,855.945,726.993z M748.823,710.988c0-9.642-8.614-17.451-19.257-17.451
		c-10.615,0-19.229,7.808-19.229,17.451c0,9.642,8.614,17.451,19.229,17.451C740.208,728.438,748.823,720.63,748.823,710.988z"/>
	<path fill="#28201D" d="M509.179,725.159c0,27.566-18.118,50.908-43.099,58.772c3.946,3.001,5.863,6.947,6.28,11.004
		c1.25,12.116-11.06,25.065-22.981,16.006c-31.178-23.703-63.635-61.384-105.344-63.607c-13.116-0.695-13.06-19.535,0-20.341
		c14.672-0.917,28.9,2.112,42.627,7.475c-0.445-3.029-0.695-6.141-0.695-9.309c0-34.04,27.566-61.606,61.606-61.606
		C481.585,663.553,509.179,691.119,509.179,725.159z M488.171,710.988c0-9.642-8.614-17.451-19.257-17.451
		c-10.643,0-19.257,7.808-19.257,17.451c0,9.642,8.614,17.451,19.257,17.451C479.557,728.438,488.171,720.63,488.171,710.988z"/>
</g>
</svg>
